<?xml version="1.0" encoding="UTF-8" standalone="no"?>
<!-- Created with Inkscape (http://www.inkscape.org/) -->

<svg
   xmlns:dc="http://purl.org/dc/elements/1.1/"
   xmlns:cc="http://creativecommons.org/ns#"
   xmlns:rdf="http://www.w3.org/1999/02/22-rdf-syntax-ns#"
   xmlns:svg="http://www.w3.org/2000/svg"
   xmlns="http://www.w3.org/2000/svg"
   xmlns:sodipodi="http://sodipodi.sourceforge.net/DTD/sodipodi-0.dtd"
   xmlns:inkscape="http://www.inkscape.org/namespaces/inkscape"
   width="400"
   height="630"
   id="svg2"
   version="1.1"
   inkscape:version="0.48.4 r9939"
   sodipodi:docname="national-association-of-rocketry.svg">
  <defs
     id="defs4" />
  <sodipodi:namedview
     id="base"
     pagecolor="#ffffff"
     bordercolor="#666666"
     borderopacity="1.0"
     inkscape:pageopacity="0.0"
     inkscape:pageshadow="2"
     inkscape:zoom="1"
     inkscape:cx="223.6002"
     inkscape:cy="293.91919"
     inkscape:document-units="px"
     inkscape:current-layer="layer1"
     showgrid="false"
     showguides="false"
     inkscape:guide-bbox="true"
     inkscape:window-width="1920"
     inkscape:window-height="988"
     inkscape:window-x="0"
     inkscape:window-y="24"
     inkscape:window-maximized="1">
    <sodipodi:guide
       orientation="1,0"
       position="176,0"
       id="guide3242" />
    <sodipodi:guide
       orientation="0,1"
       position="0,263"
       id="guide3244" />
    <sodipodi:guide
       orientation="0,1"
       position="0,132.5"
       id="guide3246" />
    <sodipodi:guide
       orientation="1,0"
       position="17,0"
       id="guide3248" />
    <sodipodi:guide
       orientation="1,0"
       position="335,0"
       id="guide3250" />
    <sodipodi:guide
       orientation="0,1"
       position="0,445"
       id="guide3252" />
    <sodipodi:guide
       orientation="1,0"
       position="159,0"
       id="guide3254" />
    <sodipodi:guide
       orientation="1,0"
       position="193,0"
       id="guide3256" />
    <sodipodi:guide
       orientation="1,0"
       position="93,0"
       id="guide3258" />
    <sodipodi:guide
       orientation="1,0"
       position="259,0"
       id="guide3260" />
    <sodipodi:guide
       orientation="0,1"
       position="0,216"
       id="guide3262" />
    <sodipodi:guide
       orientation="0,1"
       position="0,193"
       id="guide3264" />
    <sodipodi:guide
       orientation="0,1"
       position="0,125.5"
       id="guide3266" />
    <sodipodi:guide
       orientation="0,1"
       position="0,620"
       id="guide3268" />
    <sodipodi:guide
       orientation="0,1"
       position="0,12"
       id="guide4040" />
    <sodipodi:guide
       orientation="0,1"
       position="0,23"
       id="guide4152" />
    <sodipodi:guide
       orientation="0,1"
       position="0,575"
       id="guide4154" />
    <sodipodi:guide
       orientation="1,0"
       position="33,0"
       id="guide4156" />
    <sodipodi:guide
       orientation="1,0"
       position="319,0"
       id="guide4158" />
    <sodipodi:guide
       orientation="0,1"
       position="0,540"
       id="guide4163" />
    <sodipodi:guide
       orientation="0,1"
       position="0,31"
       id="guide4165" />
    <sodipodi:guide
       orientation="1,0"
       position="46,0"
       id="guide4167" />
    <sodipodi:guide
       orientation="1,0"
       position="306,0"
       id="guide4169" />
  </sodipodi:namedview>
  <metadata
     id="metadata7">
    <rdf:RDF>
      <cc:Work
         rdf:about="">
        <dc:format>image/svg+xml</dc:format>
        <dc:type
           rdf:resource="http://purl.org/dc/dcmitype/StillImage" />
        <dc:title></dc:title>
      </cc:Work>
    </rdf:RDF>
  </metadata>
  <g
     inkscape:label="Layer 1"
     inkscape:groupmode="layer"
     id="layer1"
     style="display:inline">
    <path
       style="fill:#ee3224;fill-opacity:1;stroke:none"
       d="M 176,10 17,618 335,618 z"
       id="path4042"
       inkscape:connector-curvature="0"
       sodipodi:nodetypes="cccc" />
    <g
       style="font-size:40px;font-style:normal;font-variant:normal;font-weight:bold;font-stretch:normal;text-align:start;line-height:125%;letter-spacing:0px;word-spacing:0px;writing-mode:lr-tb;text-anchor:start;fill:#ee3224;fill-opacity:1;stroke:none;font-family:Helvetica LT Std;-inkscape-font-specification:Helvetica LT Std Bold"
       id="text4146">
      <path
         d="m 354.24,606.92 1.64,0 3.76,6.84 4.12,0 -4.16,-7.12 c 2.16,-0.16 3.92,-1.24 3.92,-4.24 0,-3.72 -2.48,-4.92 -6.68,-4.92 l -6.08,0 0,16.28 3.48,0 0,-6.84 m 0,-2.76 0,-3.92 2.44,0 c 1.32,0 3.12,0.12 3.12,1.8 0,1.8 -0.92,2.12 -2.48,2.12 l -3.08,0 m 17.68,1.48 c 0,-9.55999 -7.16001,-15.12 -15.16,-15.12 -8.03999,0 -15.2,5.56001 -15.2,15.12 0,9.55999 7.16001,15.12 15.2,15.12 7.99999,0 15.16,-5.56001 15.16,-15.12 m -4.36,0 c 0,6.95999 -4.96001,11.64 -10.8,11.64 l 0,-0.04 -0.08,0 c -5.95999,0 -10.76,-4.68001 -10.76,-11.6 0,-6.95999 4.84001,-11.6 10.84,-11.6 5.83999,0 10.8,4.64001 10.8,11.6"
         style=""
         id="path4176" />
    </g>
    <path
       style="fill:#ffffff;fill-opacity:1;stroke:none"
       d="M 176,55 33,607 319,607 z"
       id="path4160"
       inkscape:connector-curvature="0"
       sodipodi:nodetypes="cccc" />
    <path
       sodipodi:nodetypes="cccc"
       inkscape:connector-curvature="0"
       id="path4171"
       d="M 176,90 46,599 306,599 z"
       style="fill:#ee3224;fill-opacity:1;stroke:none" />
    <path
       style="fill:#ffffff;fill-opacity:1;stroke:none"
       d="M 176,185 159,367 93,497.5 176,414 259,497.5 193,367 z"
       id="path3240"
       inkscape:connector-curvature="0"
       sodipodi:nodetypes="ccccccc" />
    <g
       style="font-size:85px;font-style:normal;font-variant:normal;font-weight:bold;font-stretch:normal;text-align:center;line-height:125%;letter-spacing:10px;word-spacing:0px;writing-mode:lr-tb;text-anchor:middle;fill:#ffffff;fill-opacity:1;stroke:none;font-family:Helvetica LT Std;-inkscape-font-specification:Helvetica LT Std Bold"
       id="text3236">
      <path
         d="m 117.55133,566.47 -0.17,0 -24.225002,-42.5 -13.43,0 0,61.03 11.9,0 0,-43.52 0.17,0 24.905002,43.52 12.75,0 0,-61.03 -11.9,0 0,42.5"
         style=""
         id="path4179" />
      <path
         d="m 164.66711,572.42 22.525,0 3.91,12.58 13.855,0 -21.505,-61.03 -14.705,0 -21.76,61.03 13.43,0 4.25,-12.58 m 11.22,-34.68 0.17,0 7.565,24.14 -15.555,0 7.82,-24.14"
         style=""
         id="path4181" />
      <path
         d="m 223.17289,585 12.495,0 0,-23.885 13.175,0 c 9.43499,0 9.945,3.23001 9.945,11.56 0,6.28999 0.51,9.435 1.36,12.325 l 14.11,0 0,-1.615 c -2.72,-1.02 -2.72,-3.23001 -2.72,-12.155 0,-11.38999 -2.72,-13.26 -7.735,-15.47 6.03499,-2.04 9.435,-7.82001 9.435,-14.535 0,-5.26999 -2.97502,-17.255 -19.21,-17.255 l -30.855,0 0,61.03 m 12.495,-34.17 0,-16.32 15.895,0 c 7.47999,0 8.925,4.76 8.925,7.99 0,6.03499 -3.23001,8.33 -9.86,8.33 l -14.96,0"
         style=""
         id="path4183" />
    </g>
    <path
       style="fill:none;stroke:#ffffff;stroke-width:7;stroke-linecap:butt;stroke-linejoin:miter;stroke-miterlimit:4;stroke-opacity:1;stroke-dasharray:none"
       d="m 176,437 0,67.5"
       id="path4038"
       inkscape:connector-curvature="0"
       sodipodi:nodetypes="cc" />
  </g>
</svg>
